<svg width="20" height="20" viewBox="0 0 20 20" fill="none" xmlns="http://www.w3.org/2000/svg">
<g clip-path="url(#clip0_205_16)">
<path d="M7.22579 0.878992C5.27431 1.55598 3.59137 2.84092 2.42414 4.54507C1.25692 6.24923 0.666939 8.28278 0.74087 10.347C0.8148 12.4113 1.54874 14.3974 2.83489 16.0137C4.12103 17.63 5.89159 18.7912 7.88649 19.3269C9.50381 19.7442 11.1983 19.7625 12.8242 19.3803C14.2972 19.0494 15.659 18.3417 16.7763 17.3264C17.9391 16.2375 18.7832 14.8522 19.2177 13.3195C19.6898 11.6527 19.7738 9.8999 19.4633 8.19558H10.3813V11.963H15.641C15.5359 12.5638 15.3106 13.1373 14.9787 13.6491C14.6468 14.1609 14.215 14.6005 13.7092 14.9415C13.0671 15.3665 12.343 15.6524 11.5837 15.7807C10.8222 15.9224 10.0411 15.9224 9.27962 15.7807C8.50776 15.6213 7.77761 15.3028 7.13576 14.8454C6.1045 14.1154 5.33015 13.0783 4.92324 11.8821C4.50956 10.6635 4.50956 9.34246 4.92324 8.12386C5.21289 7.2697 5.69172 6.49199 6.324 5.84878C7.04755 5.09919 7.9636 4.56337 8.97163 4.30013C9.97966 4.03688 11.0407 4.05638 12.0384 4.35647C12.8178 4.59561 13.5306 5.01363 14.1197 5.57717C14.7128 4.98717 15.3048 4.39563 15.8958 3.80258C16.201 3.48367 16.5337 3.18002 16.8342 2.85348C15.9348 2.01656 14.8791 1.3653 13.7276 0.936975C11.6305 0.175546 9.33605 0.155083 7.22579 0.878992Z" fill="white"/>
<path d="M7.22577 0.878986C9.33585 0.154585 11.6304 0.174509 13.7275 0.935443C14.8793 1.36667 15.9345 2.02108 16.8327 2.8611C16.5275 3.18764 16.2056 3.49282 15.8943 3.8102C15.3022 4.40122 14.7107 4.99021 14.1197 5.57717C13.5305 5.01363 12.8178 4.59561 12.0384 4.35646C11.041 4.05532 9.98001 4.0347 8.97171 4.29687C7.96341 4.55904 7.0468 5.09386 6.32245 5.84267C5.69018 6.48588 5.21134 7.26359 4.92169 8.11776L1.75854 5.66872C2.89076 3.42348 4.85112 1.70605 7.22577 0.878986Z" fill="#E33629"/>
<path d="M0.919307 8.09487C1.0892 7.25224 1.37146 6.43623 1.75854 5.66872L4.92169 8.12386C4.50801 9.34246 4.50801 10.6635 4.92169 11.8821C3.86781 12.6959 2.81343 13.5138 1.75854 14.3357C0.789837 12.4075 0.4944 10.2105 0.919307 8.09487Z" fill="#F8BD00"/>
<path d="M10.3813 8.19405H19.4633C19.7738 9.89837 19.6898 11.6512 19.2177 13.318C18.7831 14.8507 17.9391 16.236 16.7763 17.3249C15.7554 16.5284 14.73 15.738 13.7092 14.9415C14.2153 14.6001 14.6473 14.1601 14.9792 13.6477C15.3112 13.1354 15.5363 12.5613 15.641 11.9599H10.3813C10.3798 10.7057 10.3813 9.44985 10.3813 8.19405Z" fill="#587DBD"/>
<path d="M1.75702 14.3357C2.81191 13.5219 3.86629 12.704 4.92017 11.8821C5.32789 13.0787 6.10334 14.1158 7.13574 14.8454C7.77959 15.3006 8.51132 15.6166 9.28418 15.7731C10.0457 15.9147 10.8268 15.9147 11.5883 15.7731C12.3476 15.6447 13.0716 15.3589 13.7138 14.9339C14.7346 15.7304 15.76 16.5208 16.7808 17.3173C15.6637 18.3331 14.3019 19.0413 12.8288 19.3726C11.2028 19.7549 9.50837 19.7366 7.89105 19.3192C6.61191 18.9777 5.41711 18.3756 4.38153 17.5507C3.28553 16.6804 2.39031 15.5838 1.75702 14.3357Z" fill="#319F43"/>
</g>
<defs>
<clipPath id="clip0_205_16">
<rect width="19.5312" height="19.5312" fill="white" transform="translate(0.421875 0.236595)"/>
</clipPath>
</defs>
</svg>
