<svg width="25" height="24" viewBox="0 0 25 24" fill="none" xmlns="http://www.w3.org/2000/svg">
<g clip-path="url(#clip0_1_460)">
<path d="M22.5781 23.0001H16.5771C16.3119 23.0001 16.0576 22.8947 15.87 22.7072C15.6825 22.5196 15.5771 22.2653 15.5771 22.0001V16.5451C15.5844 16.1469 15.5123 15.7514 15.3649 15.3814C15.2176 15.0115 14.9981 14.6747 14.7191 14.3906C14.4401 14.1064 14.1073 13.8808 13.7402 13.7267C13.373 13.5727 12.9788 13.4933 12.5806 13.4933C12.1824 13.4933 11.7883 13.5727 11.4211 13.7267C11.0539 13.8808 10.7211 14.1064 10.4422 14.3906C10.1632 14.6747 9.94363 15.0115 9.79631 15.3814C9.64898 15.7514 9.57685 16.1469 9.58412 16.5451V22.0001C9.58412 22.2653 9.47877 22.5196 9.29123 22.7072C9.1037 22.8947 8.84934 23.0001 8.58412 23.0001H2.57812C2.31291 23.0001 2.05855 22.8947 1.87102 22.7072C1.68348 22.5196 1.57813 22.2653 1.57812 22.0001V11.5431C1.57821 11.4077 1.60573 11.2738 1.65901 11.1493C1.71229 11.0249 1.79023 10.9125 1.88812 10.8191L11.8881 1.27605C12.0742 1.09899 12.3213 1.00024 12.5781 1.00024C12.835 1.00024 13.082 1.09899 13.2681 1.27605L23.2681 10.8191C23.366 10.9125 23.444 11.0249 23.4972 11.1493C23.5505 11.2738 23.578 11.4077 23.5781 11.5431V22.0001C23.5781 22.2653 23.4728 22.5196 23.2852 22.7072C23.0977 22.8947 22.8433 23.0001 22.5781 23.0001Z" fill="#262626"/>
</g>
<defs>
<clipPath id="clip0_1_460">
<rect width="24" height="24" fill="white" transform="translate(0.578125)"/>
</clipPath>
</defs>
</svg>
