<svg width="25" height="24" viewBox="0 0 25 24" fill="none" xmlns="http://www.w3.org/2000/svg">
<g clip-path="url(#clip0_1_503)">
<path d="M17.3703 3.90397C18.6847 3.97664 19.9172 4.56587 20.799 5.54328C21.6809 6.52068 22.1407 7.80701 22.0783 9.12197C22.0783 12.194 19.4263 14.081 16.8813 16.344C14.3693 18.587 13.0163 19.813 12.5783 20.096C12.1013 19.787 10.4353 18.273 8.27529 16.344C5.71929 14.072 3.07829 12.167 3.07829 9.12197C3.01586 7.80701 3.47568 6.52068 4.35755 5.54328C5.23942 4.56587 6.47186 3.97664 7.78629 3.90397C8.51444 3.8819 9.23585 4.04915 9.88 4.38937C10.5242 4.72959 11.069 5.23113 11.4613 5.84497C12.3013 7.01997 12.4413 7.60797 12.5813 7.60797C12.7213 7.60797 12.8593 7.01997 13.6913 5.84197C14.0814 5.22529 14.6264 4.72176 15.272 4.38169C15.9176 4.04161 16.6411 3.87688 17.3703 3.90397ZM17.3703 1.90397C16.4622 1.8749 15.5593 2.05106 14.7287 2.41932C13.8982 2.78759 13.1614 3.33848 12.5733 4.03097C11.9857 3.3405 11.2504 2.79088 10.4218 2.42272C9.59327 2.05457 8.69257 1.87729 7.78629 1.90397C5.94116 1.97612 4.19967 2.77596 2.94263 4.12857C1.68559 5.48118 1.01528 7.27651 1.07829 9.12197C1.07829 12.732 3.62829 14.949 6.09329 17.092C6.37629 17.338 6.66229 17.586 6.94629 17.839L7.97329 18.757C9.09333 19.8227 10.2676 20.8301 11.4913 21.775C11.8151 21.9846 12.1926 22.0962 12.5783 22.0962C12.964 22.0962 13.3415 21.9846 13.6653 21.775C14.928 20.8012 16.1383 19.7614 17.2913 18.66L18.2133 17.836C18.5063 17.576 18.8033 17.317 19.0983 17.062C21.4323 15.037 24.0783 12.742 24.0783 9.12197C24.1413 7.27651 23.471 5.48118 22.214 4.12857C20.9569 2.77596 19.2154 1.97612 17.3703 1.90397Z" fill="#262626"/>
</g>
<defs>
<clipPath id="clip0_1_503">
<rect width="24" height="24" fill="white" transform="translate(0.578125)"/>
</clipPath>
</defs>
</svg>
