<svg width="25" height="24" viewBox="0 0 25 24" fill="none" xmlns="http://www.w3.org/2000/svg">
<g clip-path="url(#clip0_1_484)">
<path d="M2.62695 7.00195H22.528" stroke="#262626" stroke-width="2" stroke-linejoin="round"/>
<path d="M14.082 2.00098L16.94 7.00198" stroke="#262626" stroke-width="2" stroke-linecap="round" stroke-linejoin="round"/>
<path d="M7.78516 2.10999L10.5802 7.00199" stroke="#262626" stroke-width="2" stroke-linecap="round" stroke-linejoin="round"/>
<path d="M2.57812 12.001V15.45C2.57812 18.299 3.27612 19.456 4.18412 20.395C5.12412 21.303 6.28212 22.002 9.13013 22.002H16.0261C18.8741 22.002 20.0321 21.303 20.9721 20.395C21.8801 19.456 22.5781 18.299 22.5781 15.45V8.552C22.5781 5.704 21.8801 4.546 20.9721 3.607C20.0321 2.699 18.8741 2 16.0261 2H9.13013C6.28212 2 5.12412 2.699 4.18412 3.607C3.27612 4.546 2.57812 5.704 2.57812 8.552V12.001Z" stroke="#262626" stroke-width="2" stroke-linecap="round" stroke-linejoin="round"/>
<path fill-rule="evenodd" clip-rule="evenodd" d="M10.3412 17.664C10.2031 17.5843 10.0884 17.4696 10.0087 17.3314C9.92899 17.1933 9.88709 17.0365 9.88721 16.877V11.63C9.88702 11.4703 9.92891 11.3134 10.0087 11.175C10.0884 11.0367 10.2032 10.9218 10.3415 10.8419C10.4798 10.762 10.6367 10.7199 10.7964 10.72C10.9561 10.72 11.113 10.7621 11.2512 10.842L15.7962 13.466C15.9345 13.5458 16.0494 13.6606 16.1293 13.7988C16.2091 13.937 16.2512 14.0939 16.2512 14.2535C16.2512 14.4132 16.2091 14.57 16.1293 14.7083C16.0494 14.8465 15.9345 14.9613 15.7962 15.041L11.2512 17.665C11.1129 17.7449 10.9559 17.787 10.7962 17.787C10.6365 17.787 10.4795 17.7449 10.3412 17.665V17.664Z" fill="#262626"/>
</g>
<defs>
<clipPath id="clip0_1_484">
<rect width="24" height="24" fill="white" transform="translate(0.578125)"/>
</clipPath>
</defs>
</svg>
