<svg width="25" height="24" viewBox="0 0 25 24" fill="none" xmlns="http://www.w3.org/2000/svg">
<g clip-path="url(#clip0_1_467)">
<path d="M19.5781 10.5C19.5781 12.1811 19.0796 13.8245 18.1456 15.2223C17.2116 16.6202 15.8841 17.7096 14.3309 18.353C12.7778 18.9963 11.0687 19.1647 9.41986 18.8367C7.77102 18.5087 6.25647 17.6992 5.06772 16.5104C3.87898 15.3217 3.06943 13.8071 2.74145 12.1583C2.41348 10.5094 2.58181 8.80036 3.22515 7.24719C3.8685 5.69402 4.95796 4.3665 6.35578 3.43251C7.7536 2.49852 9.39699 2 11.0781 2C13.3325 2 15.4945 2.89553 17.0885 4.48959C18.6826 6.08365 19.5781 8.24566 19.5781 10.5Z" stroke="#262626" stroke-width="2" stroke-linecap="round" stroke-linejoin="round"/>
<path d="M17.0894 16.511L22.5784 22" stroke="#262626" stroke-width="2" stroke-linecap="round" stroke-linejoin="round"/>
</g>
<defs>
<clipPath id="clip0_1_467">
<rect width="24" height="24" fill="white" transform="translate(0.578125)"/>
</clipPath>
</defs>
</svg>
